<svg id="Layer_1" data-name="Layer 1" xmlns="http://www.w3.org/2000/svg" viewBox="0 0 143.82 196.56"><defs><style>.cls-1{fill:#4992fc;}</style></defs><path class="cls-1" d="M133.16,69v-.06a83,83,0,0,0,2-17l.44-12.61A67.45,67.45,0,0,0,76.1,1.74l-1.16,0H73.88A41,41,0,0,0,34,42.67c0,.35,0,.7,0,1.06s0,.69,0,1C35.17,74.47,60.29,96,83.53,117.57c1-.23,2.06-.49,3.08-.78A66.25,66.25,0,0,0,133.16,69Z" transform="translate(-3.09 -1.72)"/><path class="cls-1" d="M69.47,124.45q-.84,0-1.68,0c-.38,0-1,0-1.73,0a78.44,78.44,0,0,1-20.26-2.93c-8.92-2.46-20.82-8.18-27.75-8.18-24.69,0-11.37,35.73-11.37,35.73a71.4,71.4,0,0,0,68.09,49.14A72.14,72.14,0,0,0,122.91,180a70.68,70.68,0,0,0,21.71-36c6.69-26.08-3.43-88.15-3.43-88.15-.25-1.26-.53-2.51-.84-3.74a88.52,88.52,0,0,1-2.18,18.06A71.46,71.46,0,0,1,88,121.76h0A72.84,72.84,0,0,1,69.47,124.45Z" transform="translate(-3.09 -1.72)"/></svg>